<svg width="70" height="50" viewBox="0 0 362 461" fill="none" xmlns="http://www.w3.org/2000/svg">
<path d="M331.323 204.975C333.287 201.919 337.143 198.997 340.313 201.661C342.191 203.239 342.639 208.437 341.605 211.217C337.84 221.344 329.54 226.572 319.669 229.528C318.987 229.029 318.304 228.531 317.623 228.032C322.157 220.327 326.492 212.492 331.323 204.975ZM312.791 254.425C313.481 250.947 315.223 249.385 319.068 248.595C340.868 244.109 357.761 226.384 361.579 204.669C363.988 190.973 356.027 181.097 342.147 180.531C334.563 180.22 327.865 182.58 322.337 187.684C300.403 207.936 291.785 233.995 289.512 262.676C290.023 267.469 290.268 272.031 291.033 276.503C293.7 292.075 305.801 299.948 321.048 296.069C334.017 292.769 344.116 284.968 353.164 275.457C359.209 269.103 359.92 266.147 356.408 258.269C353.473 251.683 350.771 251.584 345.588 256.735C340.657 261.637 335.288 266.224 329.568 270.16C325.361 273.056 319.989 275.041 315.231 271.369C310.343 267.599 311.515 261.879 312.124 256.597C312.208 255.859 312.643 255.165 312.791 254.425ZM42.0279 427.603C39.3586 430.732 36.1052 433.592 32.5879 435.677C30.4519 436.944 26.3212 437.695 24.8412 436.5C22.9826 435.001 21.7146 430.972 22.3226 428.573C23.7439 422.959 25.8506 417.331 28.7199 412.301C38.0932 395.876 51.6866 383.975 70.3452 375.455C62.9426 395.271 54.7439 412.693 42.0279 427.603ZM190.143 228.781C185.195 245.424 179.776 261.929 174.357 278.428C173.676 280.503 172.152 282.433 170.632 284.075C166.688 288.335 160.861 287.823 158.455 282.577C156.532 278.387 155.84 273.633 154.959 270.427C157.152 253.805 160.476 239.289 172.151 228.425C175.099 225.684 178.955 223.605 182.752 222.173C187.464 220.396 191.58 223.947 190.143 228.781ZM234.3 274.687C238.308 259.728 242.011 244.663 246.808 229.956C248.476 224.845 252.463 220.141 256.348 216.195C260.941 211.527 265.555 213.164 267.167 219.475C268.001 222.743 268.169 226.18 268.433 228.065C267.713 243.453 263.675 256.447 257.651 268.752C254.115 275.979 248.788 281.697 239.54 280.896C235.827 280.575 233.156 278.963 234.3 274.687ZM324.88 310.492C304.08 312.069 283.287 313.748 262.523 315.733C249.779 316.952 237.093 318.792 223.769 320.427C225.169 311.091 226.465 302.448 227.861 293.136C229.648 294.413 230.557 295.069 231.471 295.716C244.281 304.78 256.545 303.588 266.971 291.971C275.016 283.007 279.325 272.011 282.691 260.692C288.039 242.715 291.673 224.52 286.68 205.78C282.335 189.476 266.493 185.327 254.235 197.191C251.785 199.559 249.277 201.867 247.135 203.884C246.587 201.961 246.629 199.228 245.285 197.899C239.353 192.039 229.636 194.963 228.053 202.944C223.517 225.82 219.212 248.745 214.473 271.579C213.887 274.403 211.571 277.151 209.404 279.264C207.979 280.655 205.381 280.843 203.309 281.569C202.567 279.325 200.983 276.985 201.229 274.856C202.164 266.768 203.465 258.704 205.044 250.713C207.797 236.767 210.949 222.9 213.739 208.961C214.748 203.912 212.68 200.707 207.343 199.405C199.8 197.567 198.443 198.115 193.577 206.848C180.405 199.101 170.904 200.42 160.101 211.585C150.923 221.075 145.319 232.661 140.955 244.909C134.941 261.783 131.747 278.979 135.939 296.839C137.793 304.74 142.005 310.584 150.251 312.997C159.072 315.579 166.408 313.109 172.477 306.668C175.167 303.813 177.24 300.381 179.819 296.909C181.552 303.219 185.295 308.193 191.816 307.785C197.508 307.429 203.052 304.712 208.761 303.008C207.815 307.756 206.42 312.713 205.94 317.757C205.508 322.293 203.332 323.604 199.159 324.235C175.908 327.744 152.696 331.512 129.479 335.247C122.111 336.431 114.769 337.784 106.564 339.208C109.937 327.205 113.04 316.276 116.079 305.329C124.349 275.547 132.704 245.785 140.773 215.947C142.877 208.169 139.619 205.105 131.788 206.983C122.563 209.193 116.847 215.04 113.649 224.079C107.265 242.127 100.717 260.136 93.4639 277.844C91.4106 282.86 87.1012 287.235 82.9959 290.997C81.0879 292.747 76.3866 293.685 74.4252 292.516C72.4279 291.325 71.2426 287.012 71.4772 284.215C71.9319 278.792 73.4306 273.419 74.8559 268.124C77.8106 257.147 81.4052 246.327 83.9479 235.261C85.6092 228.029 79.6612 222.293 71.3199 221.887C65.8719 221.621 64.3412 224.257 63.9266 232.744C63.7266 236.829 62.8012 240.968 61.5999 244.897C59.7719 250.875 56.9826 256.576 55.3839 262.601C52.3772 273.943 49.3119 285.333 47.4506 296.893C46.0852 305.379 47.9266 313.884 55.9866 318.949C64.1066 324.052 72.0812 321.928 79.3052 316.577C83.3479 313.583 87.0199 310.087 91.5332 306.244C87.2986 319.209 83.4386 331.457 79.1839 343.567C78.5652 345.327 76.2266 346.749 74.3759 347.764C64.0972 353.409 53.1652 358.053 43.4919 364.577C21.6332 379.316 6.34525 399.123 0.901245 425.531C-1.49475 437.157 0.638579 447.683 10.3066 455.315C20.3092 463.211 31.2292 461.928 41.9719 456.715C52.3479 451.68 59.7132 443.217 66.5959 434.28C80.6079 416.087 88.7146 395.033 95.7146 373.507C97.0666 369.349 99.0932 367.316 103.303 366.475C127.288 361.683 151.221 356.628 175.207 351.827C183.117 350.244 191.127 349.153 199.524 347.767C199.661 350.611 199.228 352.711 199.955 354.268C201.305 357.165 202.825 361.207 205.227 362.047C207.613 362.881 211.908 361.133 214.02 359.111C216.449 356.787 218.049 353.065 218.817 349.68C219.651 346.013 221.427 344.704 224.832 344.269C246.661 341.487 268.484 338.649 290.297 335.745C303.26 334.02 316.267 332.501 329.124 330.173C335.736 328.975 337.864 323.171 335.249 316.961C333.284 312.291 329.576 310.136 324.88 310.492Z" fill="#6F0375"/>
<path d="M255.329 60.5613L224.258 117.076C223.27 118.873 221.381 119.991 219.325 119.991C218.384 119.991 217.449 119.752 216.62 119.296C213.902 117.803 212.908 114.376 214.398 111.659L245.468 55.144C246.962 52.4347 250.382 51.436 253.108 52.9227L253.11 52.924C255.825 54.4173 256.82 57.8427 255.329 60.5613ZM207.498 112.289C205.456 115.772 202.63 118.461 199.105 120.284C195.625 122.081 191.404 122.993 186.564 122.993C178.984 122.993 172.829 120.723 168.277 116.245C163.722 111.769 161.328 105.668 161.158 98.1067C161.149 98.0693 161.026 96.5453 162.15 95.2666C163.024 94.2693 164.336 93.74 166.053 93.696C168.062 93.6666 169.641 94.1067 170.617 95.08C171.372 95.8307 171.626 96.7493 171.613 97.356C171.964 100.669 172.764 103.405 173.985 105.288C175.19 107.148 176.954 108.672 179.226 109.819C181.529 110.98 184.177 111.571 187.093 111.571C191.249 111.571 194.478 110.607 196.694 108.704C198.866 106.84 199.921 104.476 199.921 101.473C199.921 99.728 199.548 98.2613 198.78 96.9947C198.02 95.74 196.837 94.6867 195.257 93.8626C193.506 92.948 189.57 91.608 183.561 89.88C177.87 88.2386 173.897 86.608 171.412 84.8973C168.888 83.1586 166.897 80.9213 165.494 78.2453C164.09 75.5706 163.378 72.5186 163.378 69.172C163.378 63.176 165.413 58.192 169.428 54.3573C173.42 50.5453 178.828 48.612 185.502 48.612C190.05 48.612 194.105 49.508 197.556 51.276C201.054 53.0693 203.81 55.6787 205.746 59.0333C207.658 62.3467 208.694 66.2787 208.833 70.7187C208.842 70.8413 208.913 72.476 207.718 73.796C207.125 74.4507 206.005 75.2426 204.046 75.304C202.024 75.384 200.465 74.9053 199.422 73.9213C198.328 72.892 198.24 71.6973 198.233 71.468C197.892 67.5266 196.677 64.5333 194.63 62.664C192.58 60.7973 189.592 59.8493 185.745 59.8493C181.801 59.8493 178.8 60.6786 176.828 62.316C174.912 63.8987 173.98 65.8947 173.98 68.4213C173.98 70.7547 174.63 72.484 175.968 73.7066C176.982 74.6373 179.649 76.1347 186.592 77.996C192.465 79.5747 196.504 80.9213 198.94 82.1106L198.952 82.1146C202.741 83.996 205.653 86.5213 207.612 89.6227C209.577 92.7266 210.572 96.4613 210.572 100.721C210.572 104.927 209.538 108.819 207.498 112.289ZM201.65 -1.52588e-05C157.274 -1.52588e-05 121.3 35.9747 121.3 80.3507C121.3 101.529 129.506 120.783 142.897 135.136L141.005 169.188C140.833 172.283 144.29 174.225 146.842 172.469L172.134 155.081C181.274 158.695 191.226 160.701 201.65 160.701C246.028 160.701 282.002 124.728 282.002 80.3507C282.002 35.9747 246.028 -1.52588e-05 201.65 -1.52588e-05Z" fill="#00D1B5"/>
</svg>
